<svg width="19" height="19" viewBox="0 0 19 19" fill="none" xmlns="http://www.w3.org/2000/svg">
<rect width="19" height="19" fill="black"/>
<g id="Home">
<rect x="-1048" y="-351" width="1440" height="720" rx="8" fill="#121214"/>
<g id="Techs">
<rect id="Rectangle 42" x="-713" y="-97" width="780" height="274" rx="4" fill="#212529"/>
<g id="TechList">
<g id="Group 199">
<rect id="Rectangle 43" x="-690" y="-15" width="732" height="49" rx="4" fill="#121214"/>
<g id="Group 198">
<g id="Group 205">
<g id="delete_FILL0_wght400_GRAD0_opsz48 (1) 1">
<path id="Vector" d="M5.16571 16.625C4.83914 16.625 4.55959 16.5087 4.32703 16.2762C4.09448 16.0436 3.97821 15.7641 3.97821 15.4375V4.15625H3.16675V2.96875H6.88758V2.375H12.1126V2.96875H15.8334V4.15625H15.022V15.4375C15.022 15.7542 14.9032 16.0312 14.6657 16.2688C14.4282 16.5062 14.1511 16.625 13.8345 16.625H5.16571ZM13.8345 4.15625H5.16571V15.4375H13.8345V4.15625ZM7.26362 13.7354H8.45112V5.83854H7.26362V13.7354ZM10.549 13.7354H11.7365V5.83854H10.549V13.7354Z" fill="white"/>
</g>
</g>
</g>
</g>
</g>
</g>
</g>
</svg>
